# xmcd
#
# Track frame offsets:
#	150
#	16846
#	42757
#	58790
#	84442
#	100691
#	126914
#	147704
#	170618
#	188137
#	207311
#	223562
#
# Disc length: 3250 seconds
#
# Revision: 0
# Processed by: cddbd v1.5.2PL0 Copyright (c) Steve Scherf et al.
# Submitted via: EZCDAudioConverter 3.1.0.1
#
DISCID=aa0cb00c
DTITLE=Engin Derya - Tu Guli and Beritan
DYEAR=2012
DGENRE=Kurdish
TTITLE0=Carek Vere
TTITLE1=Tu Güli
TTITLE2=Sineme
TTITLE3=Güle
TTITLE4=Berivan
TTITLE5=Çendi Garam Le Şaran
TTITLE6=Senin Olsun
TTITLE7=Ruken Be
TTITLE8=Beritan
TTITLE9=Dur Bü
TTITLE10=Dinya Bı Dore
TTITLE11=De Bı Lo Lo
EXTD=
EXTT0=
EXTT1=
EXTT2=
EXTT3=
EXTT4=
EXTT5=
EXTT6=
EXTT7=
EXTT8=
EXTT9=
EXTT10=
EXTT11=
PLAYORDER=
